# xmcd
#
# Track frame offsets:
#	150
#	13027
#	23582
#	34077
#	52502
#	67692
#	82817
#	96017
#	106747
#	116517
#	132252
#	145637
#	158215
#	171465
#	183912
#
# Disc length: 2591 seconds
#
# Revision: 1
# Processed by: cddbd v1.5.2PL0 Copyright (c) Steve Scherf et al.
# Submitted via: audiograbber 1.83.01
#
DISCID=a80a1d0f
DTITLE=Leroy Van Dyke - Walk On By
DYEAR=1995
DGENRE=Country
TTITLE0=The Auctioneer
TTITLE1=Walk On By
TTITLE2=If A Woman Answers
TTITLE3=Black Cloud
TTITLE4=Anne Of A Thousand Days
TTITLE5=Amazing Grace
TTITLE6=Farther Along
TTITLE7=Just As I Am
TTITLE8=Old Time Religion
TTITLE9=Precious Memories
TTITLE10=Whispering Hope
TTITLE11=Twilight On The Trail
TTITLE12=Senerade of The Bells
TTITLE13=Roses Are Red
TTITLE14=Rawhide
EXTD=
EXTT0=
EXTT1=
EXTT2=
EXTT3=
EXTT4=
EXTT5=
EXTT6=
EXTT7=
EXTT8=
EXTT9=
EXTT10=
EXTT11=
EXTT12=
EXTT13=
EXTT14=
PLAYORDER=
